/* XPM */
static char * mini_calendar_xpm[] = {
"14 14 2 2 0 0",
"__	c white",
"_`	c black",
"_`_`_`_`_`_`_`_`_`_`_`_`_`_`",
"_`_____`_`_______`_`_____`_`",
"_`_____`_`_______`_`_______`",
"_`_____`_`_______`_`_______`",
"_`_____`_`_______`_`_______`",
"_`_________________________`",
"_`_____`_`_`_`___`_________`",
"_`_________`_`___`_________`",
"_`_______`_`_____`_________`",
"_`_____`_`_______`_________`",
"_`_____`_`_`_`___`___`_`_`_`",
"_`___________________`___`_`",
"_`___________________`_`___`",
"_`_`_`_`_`_`_`_`_`_`_`_`_`_`"};
