/* XPM */
static char * mini_paper_xpm[] = {
"14 14 3 1 0 0",
" 	c black",
".	c white",
"X	c None",
"              ",
" ............ ",
" ............ ",
" ............ ",
" ............ ",
" ............ ",
" ............ ",
" ............ ",
" ............ ",
" .........    ",
" .......  XXXX",
" ...... XXXXXX",
" ..... XXXXXXX",
"      XXXXXXXX"};
