/* XPM */
static char*mini[]={
"16 16 4 1",
"a c #000080",
"# c #000000",
". c None",
"b c #ffffff",
"................",
"................",
"................",
"##.##########.##",
"#...#aaaaaa#...#",
"..#.#bbbbbb#.#..",
".##.#bbbbbb#.##.",
"#####bbbbbb#####",
".##.#bbbbbb#.##.",
"..#.#bbbbbb#.#..",
"#...#bbbbbb#...#",
"##.##########.##",
"................",
"................",
"................",
"................"};
