/* XPM */
static char * mini_windowshade_xpm[] = {
"14 14 3 1",
" 	c #000000000000",
".	c #FFFFFFFFFFFF",
"X	c #BEBEBEBEBEBE",
"              ",
" ... .... ... ",
" ... .... ... ",
"              ",
" ... .... ... ",
" ... .... ... ",
"              ",
" ............ ",
" ............ ",
" XXXXXX XXXXX ",
" XXXXXX XXXXX ",
" XXXXXX XXXXX ",
" XXXXXXXXXXXX ",
"              "};
