/* XPM */
static char * mini_keys_xpm[] = {
"16 16 3 1",
" 	c None",
".	c #000000000000",
"X	c #BEBEBEBEBEBE",
"                ",
"                ",
"                ",
"             .. ",
"            .  .",
".............  .",
".XXXXXXXXXX..  .",
".XXXXXXXXXX..  .",
".............  .",
"......      .  .",
"......       .. ",
"..  ..          ",
"..  ..          ",
"                ",
"                ",
"                "};
