/* XPM */
static char * mini_xaniroc_xpm[] = {
"16 16 3 1",
" 	c None",
".	c #BEBEBEBEBEBE",
"X	c #000000000000",
"      .         ",
" X    .       X ",
"  X    .     X  ",
"   X   .    X   ",
"    X  .   X    ",
"     X .  X   ..",
"      X .X ...  ",
"       X...     ",
"     ....X      ",
"  ... X . X     ",
"..   X   . X    ",
"    X    .  X   ",
"   X     .   X  ",
"  X      .    X ",
" X        .     ",
"          .     "};
