/* XPM */
static char * mini_floppy_xpm[] = {
"16 16 4 1",
" 	c #000000000000",
".	c #00000000FFFF",
"X	c #BEBEBEBEBEBE",
"o	c #FFFFFFFFFFFF",
"                ",
" .............. ",
" .............. ",
" .............. ",
" .............. ",
" .............. ",
" .............. ",
" .............. ",
" XXXXXXXXXXXXXX ",
" XX          XX ",
" XX oXXooooo XX ",
" XX oXXooooo XX ",
" XX oXXooooo XX ",
" XX oXXooooo XX ",
" XX          XX ",
"                "};
