/* XPM */
static char * mini_bug1_xpm[] = {
"16 16 5 1",
" 	c None",
".	c #010101",
"+	c #C5C5C5",
"@	c #818181",
"#	c #FFFFFF",
"                ",
"                ",
"      .   .     ",
"       ...      ",
"     +.....+    ",
"     @.#...@    ",
"    @.#...@.@   ",
"    ..#@+@...   ",
"   .....+.....  ",
"    ....+....   ",
"   .@...+...@.  ",
"     ...+...    ",
"    .+..+..+.   ",
"       .@.      ",
"                ",
"                "};
