/* XPM */
static char * mini_gnu_xpm[] = {
"16 16 7 1",
" 	c None",
".	c #F4F4A4A46060",
"X	c #000000000000",
"o	c #BABA88887E7E",
"O	c #FFFF00000000",
"+	c #BEBEBEBEBEBE",
"@	c #8B8B45451313",
"                ",
"            ..  ",
"             .X ",
"   X  XXXoo  .. ",
"  X. Xo..... X. ",
"  . Xo.XXXXXXXX ",
"  .Xo.XXO+OXXX X",
"  X..XXXXX++X   ",
"     X++X+++X   ",
"   XXXXXX++++   ",
"    +XX+X++++X  ",
"    +XX+X+@@@@  ",
"    XXXX+X@@@X  ",
"     +XX+XXXXX  ",
"     X++XXXXX   ",
"       XX       "};
