/* XPM */
static char * mini_picture_xpm[] = {
"14 14 3 1",
" 	c None",
".	c #FFFFFFFFFFFF",
"X	c #000000000000",
"      .       ",
"    .. ..     ",
"  ..     ..   ",
"..         .. ",
"..............",
".XXXXXXXXXXXX.",
".XXXXXXXXXXXX.",
".XXXXXXXXXXXX.",
".XXXXXXXXXXXX.",
".XXXXXXXXXXXX.",
".XXXXXXXXXXXX.",
".XXXXXXXXXXXX.",
".XXXXXXXXXXXX.",
".............."};
