/* XPM */
static char*modules[]={
"32 32 4 1",
"# c #000000",
"a c #ffff00",
". c None",
"b c #ff0000",
"................................",
"................................",
"................................",
"................................",
"................................",
"................................",
".........############...........",
".........#aaaaaaaaaa#...........",
".........#abbbbbbbbb#...........",
".........#abbbbbbbbb#...........",
".........#abbbbbbbbb#...........",
".........#abbbbbbbbb#...........",
".........#abbbbbbbbb#...........",
".........#abbbbbbbbb#...........",
".........#abbbbbbbbb#...........",
".........############...........",
"....########################....",
"....#aaaaaaaaaa##aaaaaaaaaa#....",
"....#abbbbbbbbb##abbbbbbbbb#....",
"....#abbbbbbbbb##abbbbbbbbb#....",
"....#abbbbbbbbb##abbbbbbbbb#....",
"....#abbbbbbbbb##abbbbbbbbb#....",
"....#abbbbbbbbb##abbbbbbbbb#....",
"....#abbbbbbbbb##abbbbbbbbb#....",
"....#abbbbbbbbb##abbbbbbbbb#....",
"....########################....",
"................................",
"................................",
"................................",
"................................",
"................................",
"................................"};
