/* XPM */
static char*screen[]={
"32 32 60 1",
"u c #808080",
"X c #bebebe",
"N c #a3a3a3",
"G c #e1e1e1",
"e c #e9e9e9",
"T c #cecece",
"D c #b3b3b3",
"O c #d6d6d6",
"C c #fdfdfa",
"Y c #bbbbbb",
"P c #a0a0a0",
"2 c #a8a8a8",
"f c #e6e6e6",
"U c #cbcbcb",
"E c #b0b0b0",
"l c #d3d3d3",
"Z c #b8b8b8",
"L c #a5a5a5",
"w c #666664",
"g c #e3e3e3",
"V c #c8c8c8",
"m c #d0d0d0",
"z c #b5b5b5",
"M c #d8d8d8",
"x c #4a4a4c",
"r c #bdbdbd",
"3 c #a2a2a2",
"h c #e0e0e0",
"W c #c5c5c5",
"J c #aaaaaa",
"A c #e8e8e8",
"n c #cdcdcd",
"0 c #b2b2b2",
"# c #000000",
"s c #bababa",
"4 c #9f9f9f",
"i c #dddddd",
"a c #c2c2c2",
"K c #a7a7a7",
"B c #0000c0",
"o c #cacaca",
"1 c #afafaf",
"y c #565656",
"d c #ededed",
"t c #b7b7b7",
"5 c #9c9c9c",
"j c #dadada",
"p c #c7c7c7",
"H c #acacac",
"v c #eaeaea",
"k c #d7d7d7",
"I c #dfdfdf",
". c None",
"q c #c4c4c4",
"Q c #d4d4d4",
"R c #9e9e9e",
"c c #c1c1c1",
"b c #ffffff",
"F c #aeaeae",
"S c #d1d1d1",
"................................",
"................................",
"................................",
"................................",
"................................",
"................................",
"................................",
"......####################......",
".....#abbbbbbbbbbbbbbbbbbc#.....",
".....#bdefghijklmnopqcrstu#.....",
".....#bvwxxxxxxxxxxxxxxyzu#.....",
".....#bAxBBBBBBBBBBBBBBCDu#.....",
".....#bfxBbBBBBBBBBBBBBCEu#.....",
".....#bgxBBbBBBBBBBBBBBCFu#.....",
".....#bGxBbBBbbBBBBBBBBCHu#.....",
".....#bIxBBBBBBBBBBBBBBCJu#.....",
".....#bixBBBBBBBBBBBBBBCKu#.....",
".....#bjxBBBBBBBBBBBBBBCLu#.....",
".....#bMxBBBBBBBBBBBBBBCNu#.....",
".....#bOxBBBBBBBBBBBBBBCPu#.....",
".....#bQxCCCCCCCCCCCCCCCRu#.....",
".....#bSTUVWaXYZz01H2L345u#.....",
".....#cuuuuuuuuuuuuuuuuuuu#.....",
"......####################......",
"................................",
"................................",
"................................",
"................................",
"................................",
"................................",
"................................",
"................................"};
