/* XPM */
static char*shells[]={
"32 32 11 1",
"# c #808080",
"f c #000080",
"c c #c0c0c0",
"d c #808000",
"h c #00ffff",
"g c #0000c0",
"b c #ffff00",
"e c #303030",
". c None",
"i c #0000ff",
"a c #ffffff",
"................................",
"................................",
"................................",
"................................",
"......########..................",
".....#abbbbbbb#.................",
"....#cccccccccc#######..........",
"....#aaaaaaaaaaaaaaaaa..........",
"....#abcbcbcbcbcbcbcbcd.........",
"....#acbcbcbcbcbcbcbcbd.........",
"....#abcbcbcbcbcbcbcbcd.........",
"....#acbcb###############.......",
"....#abcb#aaaaaaaaaaaaaaa#......",
"....#acbc#accccccccccccccc#.....",
"....#abcb#aceeeeeeeeeeefac#.....",
"....#acbc#aceggggggggggfac#.....",
"....#abcb#aceghggggggggfac#.....",
"....#acbc#acegihgggggggfac#.....",
"....#abcb#aceghggggggggfac#.....",
"....ddddd#aceggggggggggfac#.....",
".........#aceggggggggggfac#.....",
".........#aceggggggggggfac#.....",
".........#aceggggggggggfac#.....",
".........#acffffffffffffac#.....",
".........#acaaaaaaaaaaaaac#.....",
"..........#cccccccccccccc#......",
"...........##############.......",
"................................",
"................................",
"................................",
"................................",
"................................"};
