/* XPM */
static char * sidepic_xpm[] = {
"24 96 91 1",
" 	c None",
".	c #01020F",
"+	c #04031A",
"@	c #070624",
"#	c #090629",
"$	c #0A062E",
"%	c #040934",
"&	c #030A40",
"*	c #040B3A",
"=	c #030C47",
"-	c #0D0941",
";	c #030C4E",
">	c #0E0A48",
",	c #070D56",
"'	c #110A4F",
")	c #001165",
"!	c #0B0E5F",
"~	c #01126F",
"{	c #100F67",
"]	c #051378",
"^	c #151071",
"/	c #001889",
"(	c #0C1481",
"_	c #191079",
":	c #001992",
"<	c #0F1489",
"[	c #02199B",
"}	c #171593",
"|	c #001FB7",
"1	c #1C169D",
"2	c #001FC0",
"3	c #001FC8",
"4	c #121CA8",
"5	c #121BAE",
"6	c #201E84",
"7	c #2217A7",
"8	c #1B1CB9",
"9	c #1C1BC1",
"0	c #2029A8",
"a	c #1C29BA",
"b	c #282D8C",
"c	c #272C98",
"d	c #292EA2",
"e	c #2F2AB0",
"f	c #3137AC",
"g	c #2B39B9",
"h	c #3039C5",
"i	c #3C419E",
"j	c #45489A",
"k	c #3D46BF",
"l	c #4642C9",
"m	c #474AB1",
"n	c #4E519A",
"o	c #4D54C4",
"p	c #575BAF",
"q	c #545EC1",
"r	c #5D64CF",
"s	c #5E66C4",
"t	c #6367BE",
"u	c #6A6DB4",
"v	c #6E6FCF",
"w	c #6E76C2",
"x	c #6F74CD",
"y	c #7076C8",
"z	c #787CBF",
"A	c #7D82D5",
"B	c #7E83D0",
"C	c #8486CE",
"D	c #8889C3",
"E	c #8D91D9",
"F	c #9192CD",
"G	c #9898C7",
"H	c #999EE4",
"I	c #9FA3CB",
"J	c #A2A2D2",
"K	c #A0A3DA",
"L	c #ADB1DA",
"M	c #AEB1E6",
"N	c #BBBDE9",
"O	c #C0C0E4",
"P	c #C6C7E2",
"Q	c #CDD1EE",
"R	c #D7D7EF",
"S	c #D8D9EA",
"T	c #DEE0F1",
"U	c #E9EAF4",
"V	c #F1EEF3",
"W	c #F0F1FB",
"X	c #FAF7FC",
"Y	c #F7FDFF",
"Z	c #FEFFFC",
"........................",
"++++++++++++++++++++++++",
"@@@@@@@@@@@@@@@@@@@@@@@@",
"########################",
"$$$$$$$$$$$$$$$$$$$$$$$$",
"%%%%%%%%%%%%%%%%%%%%%%%%",
"************************",
"&&&&&&&&&&&&&&&&&&&&&&&&",
"------------------------",
"========================",
">>>>>>>>>>>>>>>>>>>>>>>>",
";;;;;;;;;;;;;;;;;;;;;;;;",
"''''''''''''''''''''''''",
",,,,,,,,,,,,,,,,,,,,,,,,",
",,,,,,,,,,,,,,,,,,,,,,,,",
",,,,,,,,,,,,,,,,,,,,,,,,",
"!!!!!!!!!!!!!!!!!!!!!!!!",
"!!!!!!!!!!!!!!!!!!!!!!!!",
"!!!!!!!!!!!!!!!!!!!!!!!!",
"))))))))))))))))))))))))",
"{{{{{{{{{{{{{{{{{{{{{{{{",
"{{{{{{{{{{{{{{{{{{{{{{{{",
"{{{{{{{{{{{{{{{{{{{{{{{{",
"~~~~~~~~~~~~~~~~~~~~~~~~",
"~~~~~~~~~~~~~~~~~~~~~~~~",
"^^^^^^^^^^^^^^^^^^^^^^^^",
"^^^^^^^^^^^^^^^^^^^^^^^^",
"]]]]]]]]]]]]]]]]]]]]]]]]",
"]]]]]]]]]]]]]]]]]]]]]]]]",
"]^]^]]^]]^]^]^]^]^]^]^]]",
"]]]]^]jIIIIIIIIIDn]]]]^]",
"______]PZZZZZZZZZZSj____",
"(((((((bVZYPPPPPUZZXD(((",
"(((((((_uZZz___((nTZZG((",
"(((((((((IZVi(((/(6IYj((",
"(((((((((6SZR6((((((i(((",
"<<<<(<((<<iXZG<(<<<<<<<<",
"(/(/(//////zZZn<//</<<//",
"<<<<<<<<<<<pZZz/<<<<<<<<",
"<<<<<<<<<<cUZP<<<<<<<<<<",
"<<<<<<<<<<LZUb<<<<<</<<<",
"<<<<<<<<(zZZp}<<<<<uUc<<",
":::::::}iXZJ/::::cLZZG::",
"<::::::/RZYFDDDDLVZZOc::",
"}}}}}}}JZZZZZZZZZZXz}}}}",
"}}}}}}mTTTTTTTTSPDc1}}}}",
"}}}}}cwwipwwwwpd}}}}}}}}",
"}}}}}OZUsXZZZZZZPt}}}}}}",
"[}}}pZZpQXXXXXZZZZTw:}}}",
"}11[TZL[1[[[[[dwRZZZUt[[",
"[[}tZWd[[[[[[[[zUZZUw}[[",
"[[[OZK[[[[[[[tSZZXF:[[[[",
"[[dYZm[[[[[dPZZZOd[[[[[[",
"[[sZT[[[[[[[sTZZXF0[[[[[",
"11FZJ11111111[yUZZWB[111",
"1}NZC111111114dCYZZZSq11",
"11RZtyyyyyyCJQYZZZXNs[11",
"44TZtZZXZZZZZZZXOy044444",
"4[TZtXXXXXXUQKx041444444",
"44RZsqqqqqqm014444[4[4[4",
"44OZyVZZZZZZZQy[44444444",
"44KZHPZZZZZZZZZWBe[444[4",
"41yZQe00000fxLYZZUy4[444",
"44kZY044444444fKYZZUv4[4",
"777TZB7777777575kWZZYx77",
"555CZT455555555oRZXSo555",
"555eXZAoxxxxxBNZZYH45555",
"5555EZVqVZZZZZZZRo555555",
"55554TZOAYYYYWOx45555555",
"55555oYZy55555ERo5555555",
"555555FZXg5555NZH7555555",
"555555aRZM5555yZQ5555555",
"55555|5oZXg555kZX5555555",
"55555555QZE555|XZk555555",
"85555858AZQ5855RZs|5555|",
"||8|||||kZX5|||NZx||||||",
"||||||||aZZAvvvQZNvvvr||",
"888888888YZZZZZZZZZZZQ88",
"888888888YZZZZZZZZZZZQ88",
"88888888eZYa888898888888",
"88888882oZR8888888888888",
"88888888HZH8888888888888",
"88888882UZk8888888888888",
"8888888AZN28888888888888",
"888888hVWh88888888888888",
"22222|QZr222222222222222",
"22222HZA2222222222222222",
"2222rZE32222222222222222",
"222hWH222222222222222222",
"323MM2999229999999922929",
"22lO22222228228222222222",
"22El22222223223222222222",
"33h399999999999939939399",
"993939333399999993393933",
"399939999333333999999999",
"393339933333993393333333"};
